<svg xmlns="http://www.w3.org/2000/svg" viewBox="0 0 49.9 32.67"><title>closequote</title><path d="M0,31.19a68.72,68.72,0,0,0,4.68-7.94,49.84,49.84,0,0,0,3.2-8.71,77.08,77.08,0,0,0,2-11A93.17,93.17,0,0,0,21.9,0l1.78,1.54a128.78,128.78,0,0,1-8,16.58A85.14,85.14,0,0,1,7.51,29.65l-5.66,3Zm26.21,0a68.72,68.72,0,0,0,4.68-7.94,49.84,49.84,0,0,0,3.2-8.71,77.08,77.08,0,0,0,2-11A96.24,96.24,0,0,0,48.17,0L49.9,1.54a128.78,128.78,0,0,1-8,16.58,85.14,85.14,0,0,1-8.21,11.54l-5.66,3Z" style="fill:#fab900"/></svg>