<svg xmlns="http://www.w3.org/2000/svg" viewBox="0 0 49.9 32.67"><title>openquote</title><path d="M23.69,1.48A68.72,68.72,0,0,0,19,9.41a49.84,49.84,0,0,0-3.2,8.71,77.08,77.08,0,0,0-2,11A112.34,112.34,0,0,0,1.72,32.67L0,31.13A128.78,128.78,0,0,1,8,14.55,85.14,85.14,0,0,1,16.18,3l5.66-3Zm26.21,0a68.72,68.72,0,0,0-4.68,7.94,55.38,55.38,0,0,0-3.17,8.71A74.07,74.07,0,0,0,40,29.1a108.34,108.34,0,0,0-12,3.57l-1.78-1.54a133.61,133.61,0,0,1,8-16.58A88.56,88.56,0,0,1,42.39,3L48,0Z" style="fill:#fab900"/></svg>