<svg xmlns="http://www.w3.org/2000/svg" viewBox="0 0 31 31"><title>uk</title><circle cx="15.5" cy="15.5" r="15.5" style="fill:#f0f0f0"/><path d="M3.2,6.06A15.44,15.44,0,0,0,.53,11.46H8.6Z" style="fill:#0052b4"/><path d="M30.47,11.46A15.44,15.44,0,0,0,27.8,6.06L22.4,11.46Z" style="fill:#0052b4"/><path d="M.53,19.54A15.44,15.44,0,0,0,3.2,24.94L8.6,19.54Z" style="fill:#0052b4"/><path d="M24.94,3.2A15.44,15.44,0,0,0,19.54.53V8.6Z" style="fill:#0052b4"/><path d="M6.06,27.8a15.44,15.44,0,0,0,5.39,2.67V22.4Z" style="fill:#0052b4"/><path d="M11.46.53A15.44,15.44,0,0,0,6.06,3.2L11.46,8.6Z" style="fill:#0052b4"/><path d="M19.54,30.47a15.44,15.44,0,0,0,5.39-2.67L19.54,22.4Z" style="fill:#0052b4"/><path d="M22.4,19.54l5.39,5.39a15.44,15.44,0,0,0,2.67-5.39Z" style="fill:#0052b4"/><path d="M30.87,13.48H17.52V.13a15.64,15.64,0,0,0-4,0V13.48H.13a15.64,15.64,0,0,0,0,4H13.48V30.87a15.64,15.64,0,0,0,4,0V17.52H30.87a15.64,15.64,0,0,0,0-4Z" style="fill:#d80027"/><path d="M19.54,19.54l6.92,6.92q.48-.48.91-1l-5.92-5.92Z" style="fill:#d80027"/><path d="M11.46,19.54h0L4.54,26.46q.48.48,1,.91l5.92-5.92Z" style="fill:#d80027"/><path d="M11.46,11.46h0L4.54,4.54q-.48.48-.91,1l5.92,5.92Z" style="fill:#d80027"/><path d="M19.54,11.46l6.92-6.92q-.48-.48-1-.91L19.54,9.55Z" style="fill:#d80027"/></svg>