<svg xmlns="http://www.w3.org/2000/svg" xmlns:xlink="http://www.w3.org/1999/xlink" viewBox="0 0 160.82 40.63"><defs><mask id="a" x="141.08" y="0" width="19.74" height="19.58" maskUnits="userSpaceOnUse"><polygon points="141.08 0 160.82 0 160.82 19.58 141.08 19.58 141.08 0" style="fill:#fff"/></mask><mask id="b" x="141.08" y="21" width="19.74" height="19.63" maskUnits="userSpaceOnUse"><polygon points="141.08 21 160.82 21 160.82 40.63 141.08 40.63 141.08 21" style="fill:#fff"/></mask></defs><title>yer-logo</title><g style="mask:url(#a)"><path d="M141.08,6.08a14.28,14.28,0,0,1,13.57,13.5h6.17V0H141.08Z" style="fill:#fab900"/></g><path d="M153.22,19.58A12.86,12.86,0,0,0,141.08,7.5v6h-1.43v-6a12.86,12.86,0,0,0-12.19,12.08h6.11V21h-6.11a12.86,12.86,0,0,0,12.19,12.08V27h1.43v6A12.86,12.86,0,0,0,153.22,21h-6.06V19.58Z" style="fill:#fab900"/><path d="M139.65,34.5A14.28,14.28,0,0,1,126,21H119.9V40.63h19.74Z" style="fill:#fab900"/><path d="M126,19.58a14.28,14.28,0,0,1,13.62-13.5V0H119.9V19.58Z" style="fill:#fab900"/><g style="mask:url(#b)"><path d="M154.65,21a14.28,14.28,0,0,1-13.57,13.5v6.13h19.74V21Z" style="fill:#fab900"/></g><path d="M153.22,21a12.86,12.86,0,0,1-12.15,12.08V27h-1.43v6A12.86,12.86,0,0,1,127.46,21h6.11V19.58h-6.11A12.86,12.86,0,0,1,139.65,7.5v6h1.43v-6a12.86,12.86,0,0,1,12.15,12.08h-6.06V21ZM141.08,6.08V0h-1.43V6.08A14.28,14.28,0,0,0,126,19.58H119.9V21H126a14.28,14.28,0,0,0,13.62,13.5v6.13h1.43V34.5A14.28,14.28,0,0,0,154.65,21h6.17V19.58h-6.17A14.28,14.28,0,0,0,141.08,6.08Z" style="fill:#fefefe"/><path d="M87.63,19.55V1.42h5.68c5.84,0,7.78,3.87,7.78,9.15,0,4.66-2.17,8.58-8.1,9Zm24.7,19.66c-3.49,0-3.95-3-4.23-9-.45-8.88-3.47-9.46-11.35-9.9v0c5.54-.14,10.87-3.29,10.87-9.78C107.62,2.28,102.47,0,95.2,0H75.73V1.42h5.38V39.21H75.73v1.42H92.78V39.21H87.63V21h5c7.71-.12,8.53,2.27,9,9.65.51,8,1,9.94,8,9.94h4.18V39.21Z" style="fill:#182c72"/><path d="M42.21,1.42H36.42l-11.89,21V39.21H29.8v1.42H12.57V39.21H18V22.54L4.81,1.44H0V0H18.26V1.44h-6L23.84,20.38l10.81-19H28.81V0H69.56l.34,12.5H68.47l-.05-2c-.14-8.06-3.09-9.31-14.05-9.08H48.73V19.55h4.49c5.58,0,6-2.05,5.91-7.21h1.44V28.58H59.13c0-6-.34-7.54-5.91-7.54H48.73V39.21h8.64c8.75,0,11.62-4.37,12.82-12.5h1.55l-.52,13.92H36.83V39.21h5.38V1.42" style="fill:#182c72"/></svg>